<?xml version="1.0" encoding="utf-8"?>
<!-- Generator: Adobe Illustrator 23.0.1, SVG Export Plug-In . SVG Version: 6.00 Build 0)  -->
<svg version="1.1" id="Layer_1" xmlns="http://www.w3.org/2000/svg" xmlns:xlink="http://www.w3.org/1999/xlink" x="0px" y="0px"
	 viewBox="0 0 1920 1920" enable-background="new 0 0 1920 1920" xml:space="preserve">
<path fill="none" stroke="#000000" stroke-width="4" stroke-miterlimit="10" d="M1609.17,0"/>
<path fill="none" stroke="#000000" stroke-width="3" stroke-linecap="round" stroke-linejoin="round" stroke-miterlimit="10" d="
	M1847.4-24.6V57H79.4v771.2h814.4v67.2h-456V945h649.6v65.6H257v772.8h108v-34.67v-107.2c0,0-1.6-27.6,27.6-27.6
	c29.2,0,255.33,0,255.33,0s25.07,1.47,30.4,20.67l20.8,49.07l30.93,31.47c0,0,8.53,7.47,9.07,18.13l0.53,33.6
	c0,0-2.67,21.33-22.93,21.87h-23.47c0,0-0.53-33.6-34.67-33.6c-34.13,0-32.53,32.53-32.53,32.53s0,33.07,33.07,33.07
	c33.07,0,29.87-32.53,29.87-32.53s2.13-28.53-28.53-28.53s-40,16.8-40,28.93H485.4c0,0,0.67-32.93-32.93-32.93
	s-33.07,33.6-33.07,33.6s-5.87,32.4,32.4,32.4s31.07-33.47,31.07-33.47s-1.6-29.07-29.07-29.07c-27.47,0-31.94,22.43-37.54,28.03
	c-5.6,5.6-27.39,1.97-33.13-3.76c-5.73-5.73-0.53-79.2,67.2-79.2s155.87,16.67,179.73-7.2"/>
</svg>
