<?xml version="1.0" encoding="utf-8"?>
<!-- Generator: Adobe Illustrator 23.0.3, SVG Export Plug-In . SVG Version: 6.00 Build 0)  -->
<svg version="1.1" id="Layer_1" xmlns="http://www.w3.org/2000/svg" xmlns:xlink="http://www.w3.org/1999/xlink" x="0px" y="0px"
	 viewBox="0 0 325.46 120.11" style="enable-background:new 0 0 325.46 120.11;" xml:space="preserve">
<style type="text/css">
	.st0{clip-path:url(#SVGID_2_);fill:#1D71B8;}
	.st1{clip-path:url(#SVGID_4_);fill:#1D71B8;}
	.st2{fill:#1D71B8;}
	.st3{fill:#EA5B0C;}
</style>
<g>
	<defs>
		<rect id="SVGID_1_" y="3.9" width="327.01" height="130.8"/>
	</defs>
	<clipPath id="SVGID_2_">
		<use xlink:href="#SVGID_1_"  style="overflow:visible;"/>
	</clipPath>
	<path class="st0" d="M12.12,68.55c1.73,6.76,5.2,12.82,9.9,17.69l11.33-5.82l-12.7-1.48l12.73-1.08L12.12,68.55z"/>
</g>
<g>
	<defs>
		<rect id="SVGID_3_" x="10.88" y="18.95" width="305.25" height="79.44"/>
	</defs>
	<clipPath id="SVGID_4_">
		<use xlink:href="#SVGID_3_"  style="overflow:visible;"/>
	</clipPath>
	<path class="st1" d="M39.8,54.02l2.93,17.46l5.39-11.21C44.46,58.49,41.69,56.41,39.8,54.02"/>
	<path class="st1" d="M35.23,75.49L24.6,62.62l11.94,9.84L23.02,43.92l16.56,27.62h0.26l-0.57-18.25c-1.65-2.36-2.48-5-2.47-7.93
		l0.01-10.74c0-2.13,0.39-4.11,1.18-5.96c0.79-1.85,1.88-3.44,3.28-4.78c1.4-1.34,3.02-2.4,4.87-3.18c1.85-0.78,3.78-1.17,5.79-1.17
		l5.45,0c-2.18-0.38-4.42-0.58-6.72-0.58C28.7,18.93,10.9,36.7,10.88,58.64c0,3.19,0.38,6.29,1.09,9.26L35.23,75.49z"/>
	<path class="st1" d="M36.78,84.25l-9.02,6.91c6.45,4.54,14.32,7.22,22.81,7.23c0.2,0,0.4-0.01,0.6-0.01
		c-3.86-0.16-7.19-1.63-9.99-4.44C38.46,91.21,36.99,87.98,36.78,84.25"/>
</g>
<path class="st2" d="M33.76,83.75L23.08,87.3c1.15,1.11,2.36,2.16,3.65,3.12L33.76,83.75z"/>
<polygon class="st2" points="49.46,60.92 45.7,71.54 51.86,71.54 51.85,83.29 71.99,83.31 72,71.57 "/>
<polygon class="st2" points="105,53.61 100.38,71.94 95.86,71.94 91.27,53.6 95.02,53.6 98.12,67.49 101.25,53.61 "/>
<path class="st2" d="M119.11,64.94l-8.19,0l0,3.51l6.91,0.01l-0.01,3.51l-6.9,0c-0.96,0-1.79-0.34-2.47-1.03
	c-0.69-0.7-1.03-1.52-1.03-2.48l0.01-11.31c0-0.49,0.09-0.96,0.28-1.38c0.18-0.43,0.44-0.8,0.76-1.11c0.32-0.31,0.7-0.56,1.13-0.74
	c0.43-0.18,0.88-0.27,1.35-0.27l4.68,0c0.99,0,1.82,0.34,2.49,1.02c0.68,0.68,1.01,1.51,1.02,2.5L119.11,64.94z M115.6,61.42
	l0.01-4.29l-4.68-0.01l-0.01,4.29L115.6,61.42z"/>
<path class="st2" d="M126.52,74.3c0,0.48-0.09,0.92-0.27,1.35c-0.19,0.43-0.44,0.8-0.76,1.11c-0.33,0.31-0.7,0.56-1.13,0.76
	c-0.43,0.2-0.88,0.29-1.34,0.29h-3.51l0-3.51l3.51,0l0.02-20.67l3.51,0L126.52,74.3z M127.17,48.25c0,0.65-0.23,1.2-0.68,1.66
	c-0.46,0.45-1.01,0.68-1.66,0.68c-0.65,0-1.2-0.22-1.66-0.68c-0.45-0.46-0.68-1.01-0.68-1.66c0-0.65,0.23-1.2,0.68-1.66
	c0.46-0.45,1.01-0.68,1.66-0.68c0.65,0,1.2,0.23,1.66,0.69C126.94,47.05,127.17,47.6,127.17,48.25"/>
<path class="st2" d="M142.13,68.47c0,0.47-0.09,0.92-0.28,1.35c-0.18,0.43-0.43,0.81-0.74,1.13c-0.31,0.33-0.68,0.58-1.11,0.76
	c-0.43,0.18-0.89,0.27-1.39,0.27l-4.68-0.01c-0.96,0-1.79-0.34-2.47-1.03c-0.69-0.69-1.03-1.52-1.03-2.48l0-2.73l3.51,0l0,2.73
	l4.68,0.01l0.01-2.73l-5.46-2.58c-1.82-0.86-2.73-2.03-2.73-3.51l0-2.5c0-0.49,0.09-0.95,0.27-1.38c0.18-0.43,0.44-0.79,0.76-1.11
	c0.32-0.31,0.71-0.56,1.13-0.74c0.43-0.18,0.88-0.27,1.35-0.27l4.68,0c0.99,0,1.82,0.34,2.5,1.02c0.67,0.68,1.02,1.51,1.01,2.5
	l0,2.73l-3.51,0l0-2.73l-4.68,0l0,2.34l4.99,2.35c2.13,0.96,3.2,2.16,3.19,3.59L142.13,68.47z"/>
<path class="st2" d="M157.73,64.97l-8.19-0.01l0,3.51l6.9,0.01l0,3.51l-6.91-0.01c-0.96,0-1.79-0.34-2.48-1.03
	c-0.69-0.69-1.03-1.52-1.03-2.48l0.01-11.31c0-0.5,0.09-0.96,0.27-1.39c0.18-0.43,0.44-0.8,0.76-1.11c0.32-0.31,0.7-0.56,1.13-0.74
	c0.43-0.18,0.88-0.27,1.35-0.27l4.68,0c0.99,0,1.82,0.34,2.5,1.02c0.67,0.68,1.01,1.51,1.01,2.5L157.73,64.97z M154.23,61.46l0-4.29
	h-4.68l-0.01,4.29L154.23,61.46z"/>
<path class="st2" d="M181.14,68.51c0,0.47-0.09,0.91-0.27,1.34c-0.18,0.43-0.43,0.81-0.74,1.13c-0.31,0.33-0.69,0.58-1.11,0.76
	c-0.43,0.18-0.89,0.27-1.39,0.27l-4.68-0.01c-0.96,0-1.79-0.34-2.48-1.03c-0.69-0.69-1.03-1.52-1.03-2.48l0.01-11.31
	c0-0.5,0.09-0.96,0.28-1.39c0.18-0.43,0.44-0.8,0.77-1.11c0.32-0.31,0.7-0.56,1.13-0.74c0.43-0.18,0.88-0.27,1.35-0.27l4.68,0
	c0.99,0,1.82,0.34,2.5,1.02c0.68,0.68,1.01,1.51,1.01,2.5L181.14,68.51z M177.63,68.51l0.01-11.31l-4.68-0.01l-0.01,11.31
	L177.63,68.51z"/>
<path class="st2" d="M196.74,74.37c0,0.47-0.09,0.92-0.28,1.35c-0.18,0.43-0.43,0.8-0.76,1.11c-0.33,0.31-0.71,0.57-1.13,0.76
	c-0.43,0.2-0.88,0.29-1.35,0.29l-6,0l0-3.51l6,0l0-4.13c-0.42,1.19-1.35,1.79-2.81,1.79l-1.88,0c-0.96,0-1.79-0.34-2.47-1.03
	c-0.69-0.69-1.03-1.52-1.03-2.48l0.01-11.32c0-0.96,0.34-1.79,1.04-2.47c0.69-0.69,1.52-1.03,2.48-1.03l1.87,0
	c1.46,0,2.39,0.6,2.81,1.8v-1.8l3.51,0L196.74,74.37z M193.23,68.51l0.02-11.31l-4.68-0.01l-0.01,11.31L193.23,68.51z"/>
<path class="st2" d="M227.17,72.06l-3.51,0l0.01-14.82l-4.1,0l-0.01,14.82l-3.51,0l0.01-14.82l-4.1,0l-0.01,14.83l-3.51,0
	l0.02-18.33l3.51,0v1.79c0.42-1.19,1.35-1.79,2.81-1.79l1.6,0c1.46,0,2.39,0.6,2.81,1.8c0.41-1.2,1.35-1.79,2.81-1.79l1.68,0
	c0.99,0,1.82,0.34,2.49,1.01c0.68,0.68,1.02,1.51,1.02,2.5L227.17,72.06z"/>
<path class="st2" d="M242.78,68.56c0,0.47-0.09,0.92-0.28,1.35c-0.18,0.42-0.43,0.8-0.74,1.12c-0.31,0.33-0.69,0.58-1.12,0.76
	c-0.43,0.18-0.89,0.27-1.38,0.27l-4.68,0c-0.96,0-1.79-0.34-2.48-1.04c-0.69-0.69-1.03-1.52-1.03-2.48l0.01-11.31
	c0-0.49,0.09-0.96,0.28-1.39c0.18-0.43,0.44-0.8,0.76-1.11c0.33-0.31,0.7-0.56,1.13-0.74c0.43-0.18,0.88-0.27,1.35-0.27l4.68,0
	c0.99,0,1.82,0.34,2.49,1.02c0.68,0.68,1.01,1.51,1.01,2.5L242.78,68.56z M239.27,68.56l0.01-11.31l-4.68-0.01l-0.01,11.32
	L239.27,68.56z"/>
<path class="st2" d="M258.38,72.08l-3.51,0l0.01-14.82l-4.69,0l-0.01,14.82l-3.51,0l0.02-18.33l3.51,0l0,1.79
	c0.42-1.19,1.36-1.79,2.81-1.79h1.87c0.99,0,1.82,0.34,2.5,1.01c0.67,0.68,1.01,1.51,1.01,2.5L258.38,72.08z"/>
<path class="st2" d="M270.67,72.1l-3.51,0c-0.96,0-1.79-0.34-2.48-1.04c-0.69-0.69-1.04-1.52-1.03-2.48l0.01-11.31l-2.73,0l0-3.51
	l2.73,0l0.01-5.46l3.51,0l0,5.46l3.51,0.01l0,3.51h-3.51l-0.01,11.31l3.51,0L270.67,72.1z"/>
<path class="st2" d="M284.91,72.11l-3.51,0v-1.48c-0.13,0.5-0.45,0.87-0.97,1.11c-0.52,0.25-0.96,0.37-1.33,0.37l-2.3,0
	c-0.47,0-0.93-0.09-1.36-0.27c-0.45-0.18-0.82-0.44-1.15-0.76c-0.33-0.33-0.59-0.7-0.78-1.13c-0.2-0.43-0.29-0.88-0.29-1.35l0-4.29
	c0-1.09,0.34-1.95,1.02-2.58c0.68-0.62,1.51-0.93,2.5-0.93l2.38,0c1.25,0,2.02,0.5,2.3,1.48l0-4.99l-6.86-0.01l0-3.51l6.87,0
	c0.99,0,1.82,0.34,2.49,1.02c0.68,0.68,1.01,1.51,1.01,2.5L284.91,72.11z M281.4,68.6l0-4.29l-4.65,0l0,4.29L281.4,68.6z"/>
<path class="st2" d="M300.51,74.47c0,0.46-0.09,0.91-0.28,1.34c-0.18,0.43-0.43,0.8-0.76,1.11c-0.33,0.31-0.7,0.57-1.13,0.76
	c-0.43,0.2-0.88,0.29-1.35,0.29l-6.01,0l0-3.51l6.01,0l0.01-4.13c-0.42,1.19-1.36,1.79-2.81,1.79l-1.88,0
	c-0.96,0-1.79-0.34-2.48-1.03c-0.69-0.69-1.03-1.52-1.03-2.48l0.01-11.32c0-0.96,0.34-1.79,1.03-2.48c0.69-0.69,1.52-1.03,2.48-1.03
	h1.87c1.46,0,2.39,0.6,2.8,1.8l0.01-1.79l3.51,0.01L300.51,74.47z M297.01,68.61l0.01-11.31l-4.68,0l-0.01,11.31L297.01,68.61z"/>
<path class="st2" d="M316.13,65.12l-8.19-0.01l-0.01,3.51l6.91,0.01l0,3.51l-6.9,0c-0.96,0-1.79-0.34-2.48-1.03
	c-0.69-0.69-1.03-1.52-1.04-2.48l0.01-11.31c0-0.49,0.09-0.96,0.28-1.38c0.18-0.43,0.44-0.8,0.76-1.11c0.32-0.31,0.7-0.56,1.13-0.74
	c0.43-0.18,0.88-0.27,1.35-0.27l4.68,0c0.99,0,1.82,0.34,2.49,1.02c0.67,0.68,1.01,1.51,1.01,2.5L316.13,65.12z M312.62,61.6l0-4.29
	l-4.68-0.01v4.29L312.62,61.6z"/>
<path class="st3" d="M197.83,74.38c0,0.61-0.12,1.2-0.36,1.77s-1.29,1.61-1.47,1.74l93.75,0.09l0.16-4.69l-92.07-0.09V74.38z"/>
<path class="st3" d="M127.61,74.31c0,0.61-0.12,1.21-0.36,1.77c-0.24,0.57-1.31,1.57-1.48,1.7l60.37,0.05l0-4.64l-58.52-0.05V74.31z
	"/>
<path class="st3" d="M301.6,73.3l0,1.17c0,0.61-0.12,1.21-0.37,1.77c-0.24,0.56-1.11,1.62-1.29,1.75l16.16,0.02l0.01-4.7L301.6,73.3
	z"/>
<path class="st3" d="M87.12,43.04v3.37l-15.1-0.02l0.01-11.74l-20.14-0.02L51.88,44.7l21.47,10.09c9.17,4.15,13.75,9.3,13.75,15.45
	v2.86l-0.01,1.28v3.41l31.31,0.03l0-4.69L94.58,73.1L87.12,43.04z"/>
</svg>
